<?xml version="1.0" encoding="UTF-8" standalone="no"?>
<svg
   xmlns:dc="http://purl.org/dc/elements/1.1/"
   xmlns:cc="http://creativecommons.org/ns#"
   xmlns:rdf="http://www.w3.org/1999/02/22-rdf-syntax-ns#"
   xmlns:svg="http://www.w3.org/2000/svg"
   xmlns="http://www.w3.org/2000/svg"
   xmlns:sodipodi="http://sodipodi.sourceforge.net/DTD/sodipodi-0.dtd"
   xmlns:inkscape="http://www.inkscape.org/namespaces/inkscape"
   width="28"
   height="28"
   viewBox="0 0 28 28"
   fill="none"
   version="1.1"
   id="svg6"
   sodipodi:docname="calendar.svg"
   inkscape:version="1.0.2 (e86c870879, 2021-01-15)">
  <metadata
     id="metadata12">
    <rdf:RDF>
      <cc:Work
         rdf:about="">
        <dc:format>image/svg+xml</dc:format>
        <dc:type
           rdf:resource="http://purl.org/dc/dcmitype/StillImage" />
      </cc:Work>
    </rdf:RDF>
  </metadata>
  <defs
     id="defs10" />
  <sodipodi:namedview
     pagecolor="#ffffff"
     bordercolor="#666666"
     borderopacity="1"
     objecttolerance="10"
     gridtolerance="10"
     guidetolerance="10"
     inkscape:pageopacity="0"
     inkscape:pageshadow="2"
     inkscape:window-width="1920"
     inkscape:window-height="1016"
     id="namedview8"
     showgrid="false"
     inkscape:zoom="7.6964286"
     inkscape:cx="2.4175302"
     inkscape:cy="22.320678"
     inkscape:window-x="0"
     inkscape:window-y="27"
     inkscape:window-maximized="1"
     inkscape:current-layer="svg6" />
  <g
     id="g841"
     transform="matrix(2.026944,0,0,2.026944,-2.3934904,-2.3934904)">
    <g
       id="g4"
       transform="matrix(0.70866348,0,0,0.70866348,2.3306922,2.3306922)"
       style="fill:#2f2f2f;fill-opacity:1;stroke:none;stroke-opacity:1">
      <path
         d="M 3.5,0 A 0.5,0.5 0 0 1 4,0.5 V 1 h 8 V 0.5 a 0.5,0.5 0 0 1 1,0 V 1 h 1 a 2,2 0 0 1 2,2 v 11 a 2,2 0 0 1 -2,2 H 2 A 2,2 0 0 1 0,14 V 3 A 2,2 0 0 1 2,1 H 3 V 0.5 A 0.5,0.5 0 0 1 3.5,0 Z M 1,4 v 10 a 1,1 0 0 0 1,1 h 12 a 1,1 0 0 0 1,-1 V 4 Z"
         id="path2"
         style="fill:#2f2f2f;fill-opacity:1;stroke:none;stroke-opacity:1" />
    </g>
    <text
       xml:space="preserve"
       style="font-style:normal;font-weight:normal;font-size:5.33333px;line-height:1.25;font-family:sans-serif;fill:#2f2f2f;fill-opacity:1;stroke:none"
       x="4.2786479"
       y="10.837557"
       id="text839"><tspan
         id="tspan837"
         x="4.2786479"
         y="10.837557"
         style="font-style:normal;font-variant:normal;font-weight:bold;font-stretch:normal;font-size:5.33333px;font-family:'DejaVu Serif';-inkscape-font-specification:'DejaVu Serif Bold';fill:#2f2f2f;fill-opacity:1">29</tspan></text>
  </g>
</svg>
