<svg width="28" height="28" viewBox="0 0 28 28" fill="none" xmlns="http://www.w3.org/2000/svg">
<mask id="path-1-inside-1" fill="white">
<path d="M24.5 23.9999V12.2318C24.5 11.9461 24.3778 11.6741 24.1643 11.4844L14.8702 3.22328C14.4972 2.89175 13.9369 2.88595 13.5571 3.20968L3.85128 11.4833C3.62839 11.6733 3.5 11.9514 3.5 12.2443V23.9999C3.5 24.5521 3.94772 24.9999 4.5 24.9999H23.5C24.0523 24.9999 24.5 24.5521 24.5 23.9999Z"/>
</mask>
<path d="M3.85128 11.4833L5.14872 13.0053L5.14872 13.0053L3.85128 11.4833ZM13.5571 3.20968L12.2597 1.68763L12.2597 1.68763L13.5571 3.20968ZM14.8702 3.22328L16.1989 1.72843V1.72843L14.8702 3.22328ZM24.1643 11.4844L25.493 9.98952L25.493 9.98952L24.1643 11.4844ZM22.5 12.2318V23.9999H26.5V12.2318H22.5ZM23.5 22.9999H4.5V26.9999H23.5V22.9999ZM5.5 23.9999V12.2443H1.5V23.9999H5.5ZM5.14872 13.0053L14.8546 4.73173L12.2597 1.68763L2.55383 9.96122L5.14872 13.0053ZM13.5415 4.71813L22.8357 12.9792L25.493 9.98952L16.1989 1.72843L13.5415 4.71813ZM14.8546 4.73173C14.4748 5.05546 13.9145 5.04966 13.5415 4.71813L16.1989 1.72843C15.0799 0.733848 13.399 0.716438 12.2597 1.68763L14.8546 4.73173ZM4.5 22.9999C5.05228 22.9999 5.5 23.4476 5.5 23.9999H1.5C1.5 25.6567 2.84315 26.9999 4.5 26.9999V22.9999ZM22.5 23.9999C22.5 23.4476 22.9477 22.9999 23.5 22.9999V26.9999C25.1569 26.9999 26.5 25.6567 26.5 23.9999H22.5ZM26.5 12.2318C26.5 11.3748 26.1335 10.5588 25.493 9.98952L22.8356 12.9792C22.6222 12.7895 22.5 12.5174 22.5 12.2318H26.5ZM5.5 12.2443C5.5 12.5372 5.37161 12.8153 5.14872 13.0053L2.55383 9.96122C1.88517 10.5312 1.5 11.3657 1.5 12.2443H5.5Z" fill="#2F2F2F" mask="url(#path-1-inside-1)"/>
<path d="M11.5 20H16.5" stroke="#2F2F2F" stroke-width="2" stroke-linecap="round"/>
</svg>
