<?xml version="1.0" encoding="iso-8859-1"?>
<!-- Generator: Adobe Illustrator 21.1.0, SVG Export Plug-In . SVG Version: 6.00 Build 0)  -->
<svg version="1.1" id="Layer_1" xmlns="http://www.w3.org/2000/svg" xmlns:xlink="http://www.w3.org/1999/xlink" x="0px" y="0px"
	 viewBox="0 0 100.75 100.75" style="enable-background:new 0 0 100.75 100.75;" xml:space="preserve">
<g>
	<path d="M90.223,70.444c-2.34-2.864-5.656-4.646-9.338-5.016c-3.676-0.373-7.292,0.717-10.158,3.062
		c-0.835,0.683-1.566,1.457-2.209,2.291l-4.921-4.54c-0.59-0.545-1.508-0.507-2.054,0.083c-0.544,0.59-0.507,1.509,0.083,2.054
		l5.348,4.934c-0.662,1.407-1.1,2.924-1.26,4.517c-0.368,3.681,0.718,7.284,3.06,10.148c2.342,2.865,5.659,4.646,9.342,5.016
		c0.471,0.047,0.939,0.07,1.407,0.07c3.184,0,6.245-1.088,8.742-3.131c2.865-2.342,4.647-5.658,5.017-9.339
		C93.651,76.912,92.564,73.309,90.223,70.444z M90.39,80.302c-0.292,2.908-1.7,5.529-3.965,7.38
		c-2.264,1.853-5.113,2.709-8.021,2.419c-2.909-0.292-5.53-1.699-7.381-3.964c-1.851-2.263-2.709-5.11-2.417-8.019
		c0.291-2.908,1.697-5.528,3.96-7.378c1.975-1.616,4.395-2.477,6.913-2.477c0.37,0,0.742,0.019,1.115,0.056
		c2.909,0.293,5.529,1.7,7.377,3.964c0.001,0,0.001,0.001,0.001,0.001C89.823,74.547,90.682,77.395,90.39,80.302z"/>
	<path d="M55.888,42.136c0,0.803,0.65,1.453,1.453,1.453s1.453-0.65,1.453-1.453c0-4.467-4.006-8.162-9.186-8.754v-7.065
		c0-0.803-0.65-1.453-1.453-1.453s-1.453,0.65-1.453,1.453v7.066c-5.18,0.593-9.187,4.287-9.187,8.754
		c0,4.465,4.007,8.158,9.187,8.75v11.87c-3.571-0.523-6.28-2.939-6.28-5.835c0-0.803-0.65-1.453-1.453-1.453
		s-1.453,0.65-1.453,1.453c0,4.47,4.007,8.167,9.187,8.758v7.06c0,0.803,0.65,1.453,1.453,1.453s1.453-0.65,1.453-1.453v-7.061
		c5.179-0.594,9.185-4.289,9.185-8.757c0-4.466-4.005-8.161-9.185-8.755V36.305C53.179,36.829,55.888,39.242,55.888,42.136z
		 M40.422,42.136c0-2.893,2.709-5.307,6.28-5.831v11.659C43.131,47.44,40.422,45.028,40.422,42.136z M55.887,56.921
		c0,2.894-2.708,5.308-6.278,5.834V51.088C53.179,51.614,55.887,54.028,55.887,56.921z"/>
	<path d="M16.955,32.762c0.471,0.047,0.94,0.071,1.408,0.071c3.185,0,6.246-1.088,8.744-3.13c0.392-0.321,0.759-0.663,1.11-1.019
		l5.525,5.096c0.279,0.258,0.633,0.385,0.985,0.385c0.392,0,0.782-0.157,1.068-0.468c0.544-0.59,0.507-1.509-0.083-2.053
		L30.028,26.4c1.146-1.802,1.874-3.853,2.093-6.039c0.369-3.68-0.717-7.284-3.059-10.147c-2.341-2.867-5.659-4.649-9.343-5.018
		c-3.687-0.371-7.288,0.718-10.151,3.061C3.656,13.09,2.78,21.833,7.613,27.747C9.955,30.611,13.272,32.393,16.955,32.762z
		 M11.407,10.507c1.974-1.614,4.394-2.474,6.911-2.474c0.369,0,0.739,0.019,1.111,0.056c2.911,0.292,5.533,1.699,7.382,3.964
		c0,0,0,0.001,0.001,0.001c1.851,2.263,2.709,5.11,2.417,8.018c-0.292,2.908-1.699,5.529-3.963,7.38
		c-2.263,1.851-5.113,2.708-8.022,2.418c-2.91-0.292-5.531-1.699-7.382-3.962C6.044,21.234,6.736,14.326,11.407,10.507z"/>
	<path d="M67.521,28.607c2.185,1.996,4.931,3.247,7.929,3.548c0.472,0.047,0.941,0.071,1.409,0.071c3.184,0,6.243-1.088,8.74-3.13
		c2.866-2.343,4.647-5.66,5.018-9.341c0.369-3.679-0.718-7.283-3.059-10.147c-2.34-2.865-5.655-4.646-9.337-5.017
		C74.537,4.22,70.93,5.307,68.062,7.652c-2.863,2.34-4.644,5.656-5.013,9.337c-0.34,3.388,0.568,6.705,2.539,9.446l-5.471,5.046
		c-0.59,0.544-0.627,1.463-0.083,2.053c0.287,0.311,0.677,0.468,1.068,0.468c0.353,0,0.706-0.127,0.985-0.385L67.521,28.607z
		 M65.941,17.279c0.292-2.908,1.698-5.528,3.961-7.377c1.975-1.616,4.396-2.476,6.913-2.476c0.37,0,0.742,0.019,1.116,0.056
		c2.908,0.292,5.527,1.7,7.375,3.963c0.001,0,0.001,0,0.001,0.001c1.851,2.263,2.709,5.111,2.418,8.019
		c-0.292,2.908-1.7,5.529-3.966,7.381c-2.262,1.851-5.101,2.713-8.02,2.417c-2.909-0.292-5.53-1.7-7.381-3.964
		C66.509,23.036,65.65,20.188,65.941,17.279z"/>
	<path d="M34.175,65.771l-5.529,5.102c-2.309-2.587-5.446-4.205-8.92-4.555c-3.684-0.372-7.292,0.717-10.158,3.061
		c-2.864,2.34-4.645,5.656-5.013,9.338c-0.369,3.681,0.717,7.285,3.059,10.149c2.342,2.865,5.659,4.646,9.342,5.016
		c0.471,0.047,0.94,0.07,1.407,0.07c3.185,0,6.247-1.089,8.744-3.132c2.865-2.341,4.646-5.657,5.015-9.338
		c0.291-2.905-0.337-5.756-1.761-8.239l5.785-5.339c0.59-0.544,0.627-1.463,0.083-2.053S34.765,65.227,34.175,65.771z M29.23,81.193
		c-0.292,2.908-1.699,5.528-3.963,7.378c-2.264,1.853-5.113,2.709-8.022,2.42c-2.909-0.292-5.531-1.699-7.381-3.964
		c-1.85-2.263-2.708-5.111-2.417-8.021c0.292-2.908,1.698-5.528,3.961-7.377c1.974-1.615,4.394-2.476,6.911-2.476
		c0.371,0,0.743,0.019,1.116,0.057c2.909,0.292,5.529,1.7,7.377,3.964c0,0,0,0.001,0.001,0.001
		C28.663,75.438,29.522,78.285,29.23,81.193z"/>
</g>
</svg>
