<svg width="204" height="123" viewBox="0 0 204 123" fill="none" xmlns="http://www.w3.org/2000/svg">
<path d="M201.662 2L203.005 2.66875C203.264 2.14839 203.199 1.52513 202.838 1.06924C202.477 0.613356 201.886 0.406949 201.32 0.53953L201.662 2ZM156.835 12.5L156.493 11.0395L155.719 11.2209L155.434 11.9633L156.835 12.5ZM166.014 33.0714L164.644 33.6826C164.824 34.0852 165.171 34.3884 165.595 34.5116C166.018 34.6349 166.474 34.5657 166.842 34.3224L166.014 33.0714ZM171.564 18.5L170.843 17.1847L170.359 17.4501L170.162 17.9661L171.564 18.5ZM162.381 24.9286L163.75 24.3174L162.381 24.9286ZM176.377 26.2143L177.65 25.4202L177.65 25.4202L176.377 26.2143ZM184.528 36.3997L183.186 35.7309L184.528 36.3997ZM182.785 36.4832L184.057 35.6892L182.785 36.4832ZM201.32 0.53953L156.493 11.0395L157.177 13.9605L202.004 3.46047L201.32 0.53953ZM167.416 33.6053L172.966 19.0339L170.162 17.9661L164.612 32.5375L167.416 33.6053ZM185.871 37.0684L203.005 2.66875L200.319 1.33125L183.186 35.7309L185.871 37.0684ZM200.941 0.684682L170.843 17.1847L172.285 19.8153L202.383 3.31532L200.941 0.684682ZM155.434 11.9633L149.81 26.643L152.611 27.7163L158.236 13.0367L155.434 11.9633ZM155.465 13.1112L161.011 25.5398L163.75 24.3174L158.205 11.8888L155.465 13.1112ZM161.011 25.5398L164.644 33.6826L167.384 32.4602L163.75 24.3174L161.011 25.5398ZM152.989 29.8906L162.887 26.3405L161.874 23.5166L151.976 27.0668L152.989 29.8906ZM170.291 19.2941L175.105 27.0083L177.65 25.4202L172.836 17.706L170.291 19.2941ZM175.105 27.0083L181.512 37.2773L184.057 35.6892L177.65 25.4202L175.105 27.0083ZM166.842 34.3224L177.205 27.4652L175.55 24.9633L165.186 31.8205L166.842 34.3224ZM149.81 26.643C149.045 28.6393 150.976 30.6124 152.989 29.8906L151.976 27.0668C152.378 26.9224 152.764 27.317 152.611 27.7163L149.81 26.643ZM183.186 35.7309C183.36 35.381 183.85 35.3575 184.057 35.6892L181.512 37.2773C182.547 38.9358 184.999 38.8183 185.871 37.0684L183.186 35.7309Z" fill="#229DCA"/>
<path d="M49.4755 108.26C-3.56803 88.9998 -2.56885 19.0001 38.5904 12.255C79.7496 5.50989 85.4872 49.9996 76.0874 54.4742C66.6876 58.9487 69.5461 40.3358 83.7029 42.0893C97.8597 43.8428 91.961 54.3622 107.84 64.5309C123.718 74.6996 144.57 67.0301 161.372 42.9673" stroke="#2F2F2F" stroke-opacity="0.2" stroke-width="2" stroke-linecap="round" stroke-dasharray="4 4"/>
<path fill-rule="evenodd" clip-rule="evenodd" d="M100.34 110.887V121H46.4312V110.887V53H56.5444V110.887H100.34Z" fill="#1A1A18"/>
<path d="M71.2077 77.8516H61.1592V106.38H71.2077V77.8516Z" fill="#1A1A18"/>
<path d="M85.7731 70.9838H75.7246V106.38H85.7731V70.9838Z" fill="#1A1A18"/>
<path d="M100.338 84.9675H90.2896V106.38H100.338V84.9675Z" fill="#1A1A18"/>
</svg>
