<?xml version="1.0" encoding="UTF-8" standalone="no"?>
<svg
   xmlns:dc="http://purl.org/dc/elements/1.1/"
   xmlns:cc="http://creativecommons.org/ns#"
   xmlns:rdf="http://www.w3.org/1999/02/22-rdf-syntax-ns#"
   xmlns:svg="http://www.w3.org/2000/svg"
   xmlns="http://www.w3.org/2000/svg"
   xmlns:sodipodi="http://sodipodi.sourceforge.net/DTD/sodipodi-0.dtd"
   xmlns:inkscape="http://www.inkscape.org/namespaces/inkscape"
   version="1.1"
   width="338.98169"
   height="64.354897"
   id="svg34"
   viewBox="0 0 338.98169 64.354894"
   sodipodi:docname="linerfin.svg"
   inkscape:version="1.0.1 (3bc2e813f5, 2020-09-07)">
  <metadata
     id="metadata40">
    <rdf:RDF>
      <cc:Work
         rdf:about="">
        <dc:format>image/svg+xml</dc:format>
        <dc:type
           rdf:resource="http://purl.org/dc/dcmitype/StillImage" />
        <dc:title></dc:title>
      </cc:Work>
    </rdf:RDF>
  </metadata>
  <defs
     id="defs38" />
  <sodipodi:namedview
     pagecolor="#ffffff"
     bordercolor="#666666"
     borderopacity="1"
     objecttolerance="10"
     gridtolerance="10"
     guidetolerance="10"
     inkscape:pageopacity="0"
     inkscape:pageshadow="2"
     inkscape:window-width="1920"
     inkscape:window-height="1016"
     id="namedview36"
     showgrid="false"
     inkscape:zoom="2.0478786"
     inkscape:cx="91.170846"
     inkscape:cy="61.0354"
     inkscape:window-x="0"
     inkscape:window-y="27"
     inkscape:window-maximized="1"
     inkscape:current-layer="svg34" />
  <g
     id="g78"
     transform="translate(-256.56676,-320.23571)">
    <g
       id="Layer1000"
       transform="translate(-219.88694,-224.12419)">
      <g
         id="Layer1001">
        <path
           d="m 815.4354,607.3271 h -9.3197 V 582.721 c 0,-2.8098 -0.5789,-4.9578 -1.7189,-6.4617 -1.157,-1.5039 -2.8919,-2.247 -5.2058,-2.247 -1.041,0 -2.0489,0.1321 -3.0409,0.38 -0.9749,0.2641 -1.8999,0.6111 -2.7759,1.041 -0.876,0.446 -1.6859,0.925 -2.4459,1.454 -0.76,0.545 -1.454,1.0909 -2.0659,1.6689 v 28.7709 h -9.3197 v -39.7604 h 9.0227 l 0.297,3.9667 c 0.6779,-0.6449 1.4379,-1.2559 2.2809,-1.8348 0.826,-0.5781 1.7679,-1.107 2.7759,-1.553 1.0249,-0.446 2.1159,-0.81 3.2889,-1.074 1.1899,-0.2649 2.4289,-0.3969 3.7509,-0.3969 4.9417,0 8.5936,1.3219 10.9405,3.9658 2.3629,2.644 3.5359,6.4948 3.5359,11.5186 z"
           style="fill:#e30016;fill-rule:evenodd"
           id="path2" />
        <path
           d="m 764.6523,607.3271 h -9.3197 v -39.7604 h 9.3197 z"
           style="fill:#e30016;fill-rule:evenodd"
           id="path4" />
        <path
           d="m 765.9413,556.231 c 0,0.7761 -0.165,1.47 -0.479,2.082 -0.33,0.611 -0.76,1.1399 -1.289,1.586 -0.5289,0.4299 -1.14,0.7608 -1.8509,0.9919 -0.71,0.2149 -1.454,0.33 -2.2309,0.33 -1.6029,0 -2.974,-0.429 -4.0818,-1.2889 -1.107,-0.8421 -1.669,-2.082 -1.669,-3.701 0,-1.5369 0.562,-2.7438 1.669,-3.6198 1.1078,-0.875 2.4789,-1.305 4.0818,-1.305 0.7769,0 1.5209,0.116 2.2309,0.3301 0.7109,0.2319 1.322,0.5619 1.8509,0.9919 0.529,0.446 0.959,0.958 1.289,1.553 0.314,0.5949 0.479,1.2889 0.479,2.0498 z"
           style="fill:#e30016;fill-rule:evenodd"
           id="path6" />
        <path
           d="m 736.6753,568.0571 h 9.0227 v 6.3457 h -9.0227 v 33.4147 h -9.3206 v -33.4147 h -7.3368 v -6.3457 h 7.3368 v -8.7087 c 0,-4.8909 1.2069,-8.6258 3.6028,-11.1707 2.4129,-2.5449 5.6848,-3.8178 9.8496,-3.8178 0.7431,0 1.586,0.083 2.5119,0.248 0.942,0.149 1.735,0.347 2.379,0.578 v 7.5857 c -0.281,-0.066 -0.644,-0.132 -1.057,-0.215 -0.43,-0.083 -0.843,-0.149 -1.289,-0.198 -0.4299,-0.05 -0.8429,-0.083 -1.2229,-0.116 -0.38,-0.033 -0.727,-0.0499 -1.008,-0.0499 -1.2889,0 -2.3469,0.5129 -3.1898,1.5538 -0.843,1.025 -1.256,2.6609 -1.256,4.8749 z"
           style="fill:#e30016;fill-rule:evenodd"
           id="path8" />
      </g>
      <g
         id="Layer1002">
        <path
           d="m 706.613,566.8835 c 1.131,-0.0135 1.841,0.131 2.8679,0.3914 1.0314,0.2495 2.0619,0.5646 3.0932,0.9479 v 7.5993 c -1.0978,-0.2657 -2.5573,-0.8034 -3.7718,-1.0341 -1.193,-0.2271 -1.9541,-0.1759 -3.0519,-0.1759 -1.2307,0 -2.456,0.7441 -3.3204,1.2764 -0.8644,0.5485 -1.5466,1.2477 -2.0618,2.1453 -0.5162,0.8977 -0.8986,1.929 -1.131,3.1265 -0.2164,1.1804 -0.3331,2.4281 -0.3331,3.7251 v 22.9318 h -9.3784 v -26.5573 -13.451 l 9.0714,-9e-4 c 0.01,0 0.1921,2.1651 0.2792,3.0215 0.561,-0.7846 0.8572,-1.0754 1.8312,-1.8043 0.8384,-0.6382 1.7144,-1.0475 2.6534,-1.429 0.9075,-0.3429 2.183,-0.7172 3.2521,-0.7127 z"
           style="fill:#1b1918;fill-rule:evenodd"
           id="path11" />
        <path
           d="m 637.6248,587.5622 c 0,-3.0762 0.499,-5.9028 1.5134,-8.4476 0.9981,-2.5439 2.428,-4.7224 4.2574,-6.5357 1.8455,-1.7952 4.0411,-3.1928 6.6021,-4.1901 2.5771,-0.9811 5.4208,-1.4802 8.5804,-1.4802 3.0762,0 5.787,0.4488 8.1155,1.3303 2.3114,0.8985 4.2736,2.1786 5.8696,3.8248 1.5969,1.6463 2.7773,3.6749 3.5761,6.0868 0.798,2.394 1.1966,5.1048 1.1966,8.1146 v 3.9918 h -30.6307 c 0.166,1.6624 0.5978,3.1928 1.297,4.6057 0.6984,1.4299 1.6292,2.6444 2.8267,3.6417 1.1804,1.0152 2.578,1.7961 4.191,2.3787 1.596,0.5655 3.3751,0.8473 5.3212,0.8473 1.1471,0 2.3446,-0.0996 3.6416,-0.3159 1.281,-0.2155 2.5942,-0.5153 3.9415,-0.9309 1.3465,-0.3994 2.6938,-0.8976 4.0412,-1.4963 1.3464,-0.5826 2.6435,-1.2639 3.8741,-2.0457 v 7.3839 c -2.4613,1.3967 -5.0716,2.4774 -7.8156,3.2422 -2.7441,0.7648 -5.8705,1.1472 -9.3623,1.1472 -3.2593,0 -6.1694,-0.482 -8.7636,-1.4299 -2.595,-0.9641 -4.8059,-2.3617 -6.6191,-4.174 -1.8293,-1.8123 -3.2261,-4.0411 -4.1901,-6.6514 -0.9811,-2.6112 -1.464,-5.5707 -1.464,-8.8973 z m 20.8366,-13.3702 c -3.1255,0 -5.6703,0.7818 -7.6325,2.3616 -1.9793,1.5799 -3.2764,3.8913 -3.9245,6.9181 h 21.1527 c -0.1661,-3.0268 -1.0646,-5.3382 -2.727,-6.9181 -1.6633,-1.5798 -3.9586,-2.3616 -6.8687,-2.3616 z"
           style="fill:#1b1918;fill-rule:evenodd"
           id="path13" />
        <path
           d="m 626.3505,607.8172 h -9.3784 v -24.7611 c 0,-2.8276 -0.5826,-4.9891 -1.7297,-6.5025 -1.1643,-1.5134 -2.9102,-2.2611 -5.2386,-2.2611 -1.0475,0 -2.0619,0.1329 -3.06,0.3824 -0.9811,0.2657 -1.912,0.6149 -2.7935,1.0475 -0.8814,0.4489 -1.6965,0.9309 -2.4613,1.4632 -0.7647,0.5484 -1.4631,1.0978 -2.0789,1.6794 v 28.9522 h -9.3784 v -40.0109 h 9.0795 l 0.2989,3.9917 c 0.6822,-0.649 1.447,-1.2639 2.2953,-1.8464 0.8312,-0.5817 1.7791,-1.114 2.7934,-1.5628 1.0314,-0.4488 2.1292,-0.815 3.3096,-1.0807 1.1974,-0.2666 2.4442,-0.3995 3.7745,-0.3995 4.9729,0 8.6478,1.3303 11.0094,3.9909 2.3778,2.6606 3.5582,6.5356 3.5582,11.5911 z"
           style="fill:#1b1918;fill-rule:evenodd"
           id="path15" />
        <path
           d="m 575.2476,607.8172 h -9.3785 v -40.0109 h 9.3785 z"
           style="fill:#1b1918;fill-rule:evenodd"
           id="path17" />
        <path
           d="m 576.5446,556.3992 c 0,0.7809 -0.166,1.4793 -0.482,2.095 -0.3321,0.6149 -0.7648,1.1472 -1.2971,1.596 -0.5322,0.4327 -1.1471,0.7657 -1.8625,0.9982 -0.7145,0.2163 -1.4632,0.3321 -2.245,0.3321 -1.613,0 -2.9927,-0.4317 -4.1076,-1.2971 -1.1139,-0.8473 -1.6794,-2.095 -1.6794,-3.7242 0,-1.5466 0.5655,-2.7611 1.6794,-3.6426 1.1149,-0.8806 2.4946,-1.3132 4.1076,-1.3132 0.7818,0 1.5305,0.1167 2.245,0.3321 0.7154,0.2334 1.3303,0.5655 1.8625,0.9982 0.5323,0.4488 0.965,0.964 1.2971,1.5627 0.316,0.5987 0.482,1.2971 0.482,2.0628 z"
           style="fill:#1b1918;fill-rule:evenodd"
           id="path19" />
        <path
           d="m 550.885,607.8172 h -9.3784 v -63.0594 h 9.3784 z"
           style="fill:#1b1918;fill-rule:evenodd"
           id="path21" />
      </g>
      <g
         id="Layer1003">
        <path
           d="m 526.4507,598.44 v 9.3784 h -49.997 V 598.44 h 0.003 v -53.6863 h 9.3784 V 598.44 Z"
           style="fill:#e30016;fill-rule:evenodd"
           id="path24" />
        <path
           d="m 490.1146,594.258 v -26.4573 h 9.3225 v 26.4573 z"
           style="fill:#e30016;fill-rule:evenodd"
           id="path26" />
        <path
           d="m 503.6267,594.2568 v -32.8311 h 9.3225 v 32.8311 z"
           style="fill:#e30016;fill-rule:evenodd"
           id="path28" />
        <path
           d="m 517.1331,594.258 v -19.8574 h 9.3225 v 19.8574 z"
           style="fill:#e30016;fill-rule:evenodd"
           id="path30" />
      </g>
    </g>
  </g>
</svg>
